Coordinates
version=1
nRows=29
nColumns=24
inDegrees=yes

Units are S.I. units (second, meters, Newtons, ...)
Angles are in degrees.

endheader
time	pelvis_tilt	pelvis_list	pelvis_rotation	pelvis_tx	pelvis_ty	pelvis_tz	hip_flexion_r	hip_adduction_r	hip_rotation_r	knee_angle_r	ankle_angle_r	subtalar_angle_r	mtp_angle_r	hip_flexion_l	hip_adduction_l	hip_rotation_l	knee_angle_l	ankle_angle_l	subtalar_angle_l	mtp_angle_l	lumbar_extension	lumbar_bending	lumbar_rotation
      0.60000000	      0.46195379	      1.64802830	      3.16959085	     -0.70484257	      0.98913126	      0.27170093	     22.29648796	     -0.36052891	     -1.84629149	     -4.06004512	      1.71075216	    -14.66826660	     10.36255838	    -20.36365043	      2.97214774	      6.08780852	     -9.36193480	     10.42695818	     -9.31208523	      9.98319340	     -2.46733430	     -2.36997417	     -6.29895856
      0.60416667	      0.43077287	      1.50021653	      3.21072718	     -0.69826697	      0.98885365	      0.27217493	     22.28241807	     -0.14843605	     -1.63140405	     -4.62863130	      1.30056979	    -15.01488001	     10.31789913	    -20.24897354	      2.77273244	      5.88696260	    -10.24156918	     10.25297620	     -9.05871983	     10.08698211	     -2.31609287	     -2.17149949	     -6.38711004
      0.60833333	      0.41455749	      1.32770998	      3.23042427	     -0.69163731	      0.98862688	      0.27267369	     22.25603226	      0.09532557	     -1.45272583	     -5.21138009	      0.85988663	    -15.28607466	     10.28967355	    -20.13967958	      2.55204453	      5.64439981	    -11.13743810	     10.04104110	     -8.78115271	     10.21511985	     -2.18665720	     -1.93309684	     -6.45239843
      0.61250000	      0.47719300	      1.15924809	      3.23899864	     -0.68504358	      0.98852333	      0.27321512	     22.14325033	      0.34488837	     -1.27204288	     -5.79388444	      0.45658994	    -15.59461263	     10.23965288	    -20.05357061	      2.31857328	      5.23334490	    -12.15149243	      9.86186771	     -8.27575943	     10.72965033	     -2.14916240	     -1.70100954	     -6.49521581
      0.61666667	      0.47448124	      0.99237849	      3.25242895	     -0.67841340	      0.98838328	      0.27375492	     22.10463188	      0.58614764	     -1.11453639	     -6.39401476	      0.02681285	    -15.88848621	     10.20902738	    -19.87710337	      2.09295933	      4.88801867	    -13.19256279	      9.58437615	     -7.89323427	     11.34077701	     -2.02807842	     -1.47560484	     -6.55154897
      0.62083333	      0.48954005	      0.81826996	      3.25562005	     -0.67178441	      0.98829594	      0.27431140	     22.05509212	      0.83593870	     -0.99164008	     -7.01545774	     -0.36658493	    -16.11685400	     10.18905105	    -19.68893565	      1.85744710	      4.50733458	    -14.28756462	      9.26283119	     -7.50946962	     12.12335325	     -1.92694474	     -1.23862668	     -6.58355362
      0.62500000	      0.43868065	      0.67515826	      3.26772410	     -0.66518279	      0.98817027	      0.27484556	     22.10366451	      1.04082871	     -0.92557987	     -7.70057426	     -0.73449983	    -16.29859055	     10.18040874	    -19.40634240	      1.66813069	      4.24764801	    -15.41759855	      8.89503485	     -7.31250041	     12.51152980	     -1.74978794	     -1.04582662	     -6.58905343
      0.62916667	      0.46158139	      0.49520858	      3.25761786	     -0.65856699	      0.98816628	      0.27543179	     22.05555756	      1.29520370	     -0.85628894	     -8.34968500	     -1.07981225	    -16.44557544	     10.17075558	    -19.15632191	      1.41858379	      3.80851723	    -16.62781506	      8.48774654	     -6.89355240	     13.01387958	     -1.65940081	     -0.79910878	     -6.58751254
      0.63333333	      0.51614094	      0.28536665	      3.26496053	     -0.65192959	      0.98826931	      0.27599479	     21.93864839	      1.57515311	     -0.80433570	     -8.93227844	     -1.47237931	    -16.63712940	     10.04124239	    -18.92096974	      1.12780200	      3.40392877	    -17.84813466	      7.90385448	     -6.69099984	     19.44234834	     -1.60152131	     -0.50553497	     -6.57011175
      0.63750000	      0.50397926	      0.15261210	      3.21252832	     -0.64538195	      0.98827366	      0.27664616	     21.97297402	      1.78396719	     -0.75673725	     -9.68336258	     -1.61548853	    -16.57759303	     10.03847958	    -18.57821598	      0.93944578	      2.97334642	    -19.13693597	      7.32008197	     -6.40287031	     19.50687091	     -1.47451938	     -0.33737917	     -6.56144214
      0.64166667	      0.51746951	     -0.01514202	      3.18483828	     -0.63885891	      0.98835527	      0.27727790	     21.96566072	      2.02076329	     -0.75929322	    -10.40731119	     -1.82471211	    -16.62593653	     10.02594852	    -18.21218329	      0.69067907	      2.52138250	    -20.50880555	      6.77188195	     -6.02889032	     19.65195048	     -1.39126145	     -0.10443188	     -6.52968584
      0.64583333	      0.54295273	     -0.18636620	      3.14618352	     -0.63234864	      0.98849179	      0.27793630	     21.92208001	      2.26536676	     -0.73605005	    -11.08486699	     -1.98010930	    -16.61830161	     10.00983432	    -17.83020985	      0.43246572	      2.05334187	    -21.91867351	      6.11954415	     -5.71901620	     19.81617644	     -1.30716213	      0.12117806	     -6.49077727
      0.65000000	      0.55518684	     -0.35158995	      3.10295272	     -0.62588193	      0.98863810	      0.27861073	     21.90172645	      2.50232100	     -0.73173719	    -11.78454254	     -2.09269566	    -16.60825075	      9.98913033	    -17.40026745	      0.17626065	      1.60304604	    -23.37631356	      5.41993050	     -5.43500200	     19.99958465	     -1.22132103	      0.34638671	     -6.44456275
      0.65416667	      0.58727408	     -0.52986788	      3.06133309	     -0.61947890	      0.98883890	      0.27931358	     21.84861432	      2.75824725	     -0.71409974	    -12.45988395	     -2.22062029	    -16.69308254	      9.34913392	    -16.94653610	     -0.11664039	      1.10917773	    -24.88719329	      4.66074019	     -5.14840205	     24.84257251	     -1.17157236	      0.59588987	     -6.38378745
      0.65833333	      0.61927198	     -0.68451509	      3.00611269	     -0.61313090	      0.98905671	      0.28001843	     21.81148476	      2.98354963	     -0.74619815	    -13.17276539	     -2.19463616	    -16.55780419	      9.34896839	    -16.47527631	     -0.37443027	      0.67579188	    -26.42561609	      3.88638485	     -4.92514503	     24.87498244	     -1.13002258	      0.79600159	     -6.32627764
      0.66250000	      0.63745611	     -0.84339914	      2.95335041	     -0.60680528	      0.98931271	      0.28074558	     21.75049511	      3.21728562	     -0.74111155	    -13.80649553	     -2.18457266	    -16.48871351	      9.34166694	    -15.95553173	     -0.65001971	      0.23898008	    -27.99674364	      3.05509576	     -4.73046795	     24.91736353	     -1.06151754	      1.00222670	     -6.26526992
      0.66666667	      0.65756458	     -1.00023816	      2.90230525	     -0.60057859	      0.98956535	      0.28147586	     21.69908630	      3.44704344	     -0.76485559	    -14.46111521	     -2.14890413	    -16.43627662	      9.32278610	    -15.40209130	     -0.93100089	     -0.17350946	    -29.62372265	      2.25522473	     -4.52690421	     24.98301222	     -1.02138873	      1.21298078	     -6.19059966
      0.67083333	      0.67915243	     -1.15784876	      2.85327777	     -0.59437990	      0.98987133	      0.28221559	     21.60650147	      3.68020010	     -0.76451603	    -15.03591935	     -2.08130087	    -16.37270592	      9.30192465	    -14.82570558	     -1.22101609	     -0.56833107	    -31.26625022	      1.38361284	     -4.40121725	     25.03718475	     -0.97106887	      1.42078124	     -6.12199802
      0.67500000	      0.69072601	     -1.31183471	      2.80778838	     -0.58824355	      0.99019301	      0.28296076	     21.51291239	      3.90917656	     -0.77409618	    -15.58606494	     -1.99162944	    -16.31518645	      9.27727261	    -14.21293363	     -1.51271305	     -0.93362289	    -32.92908394	      0.53595387	     -4.30941776	     25.07918914	     -0.92462396	      1.61313912	     -6.05111931
      0.67916667	      0.71044586	     -1.46309930	      2.76487217	     -0.58219058	      0.99053755	      0.28371583	     21.39774359	      4.13667548	     -0.78519732	    -16.10633941	     -1.88003957	    -16.26409700	      9.24684860	    -13.58065487	     -1.80930232	     -1.27566140	    -34.61956861	     -0.30226249	     -4.24189262	     25.10622635	     -0.89545832	      1.80745295	     -5.97810051
      0.68333333	      0.72321932	     -1.61365551	      2.72798305	     -0.57618331	      0.99091580	      0.28445467	     21.26039201	      4.36386996	     -0.78690805	    -16.56655391	     -1.74984468	    -16.22292715	      9.21655831	    -12.92286902	     -2.10466731	     -1.57556725	    -36.31147605	     -1.14534026	     -4.24503428	     25.10739390	     -0.86630483	      1.99631858	     -5.90714224
      0.68750000	      0.71096028	     -1.75182085	      2.69803698	     -0.57026893	      0.99127835	      0.28518740	     21.14660611	      4.57484165	     -0.80278894	    -17.01712936	     -1.61042275	    -16.19241245	      9.17205257	    -12.21363910	     -2.38492738	     -1.82362235	    -38.01750354	     -1.92097958	     -4.28120713	     25.07399155	     -0.81947653	      2.17786899	     -5.83456317
      0.69166667	      0.71806015	     -1.89470056	      2.67577128	     -0.56438730	      0.99171656	      0.28592082	     20.96580224	      4.79450307	     -0.80439151	    -17.37173080	     -1.45227379	    -16.16872324	      9.13514070	    -11.51150434	     -2.67848807	     -2.06207107	    -39.71163524	     -2.67641595	     -4.38321898	     25.00954201	     -0.78711674	      2.34636782	     -5.76854949
      0.69583333	      0.69524011	     -2.01843936	      2.65756759	     -0.55860527	      0.99212509	      0.28662906	     20.82137618	      4.99078569	     -0.81375571	    -17.73406205	     -1.28769076	    -16.16761491	      9.07450516	    -10.75692609	     -2.94041804	     -2.23967345	    -41.40564956	     -3.35182437	     -4.51448834	     24.85741676	     -0.74425440	      2.51056374	     -5.70012463
      0.70000000	      0.68406881	     -2.14381078	      2.64756894	     -0.55287308	      0.99258679	      0.28733005	     20.63163367	      5.19026136	     -0.82063506	    -18.02533085	     -1.11942861	    -16.16921663	      9.00753155	    -10.00424674	     -3.20465163	     -2.39207844	    -43.08044894	     -3.96409701	     -4.71370804	     24.62546424	     -0.71236514	      2.66929677	     -5.63491307
      0.70416667	      0.69414989	     -2.24787234	      2.65092884	     -0.54720157	      0.99313230	      0.28798244	     20.39743188	      5.36283503	     -0.83576661	    -18.28010752	     -0.86513703	    -16.09550370	      7.73229572	     -9.26693570	     -3.43217512	     -2.48611935	    -44.72587181	     -4.47833861	     -4.94150804	     19.32273841	     -0.71002532	      2.79001055	     -5.62113287
      0.70833333	      0.71918148	     -2.37568009	      2.65311946	     -0.54157223	      0.99373287	      0.28865349	     20.10401632	      5.57243487	     -0.80546055	    -18.43575881	     -0.68408920	    -16.15940178	      7.73917315	     -8.53837168	     -3.69400579	     -2.59019928	    -46.33679230	     -4.92508485	     -5.22054789	     19.27458702	     -0.73627984	      2.95823341	     -5.52928530
      0.71250000	      0.70827102	     -2.47962469	      2.66311820	     -0.53601283	      0.99431561	      0.28929792	     19.84268500	      5.75134927	     -0.78931311	    -18.57686535	     -0.50584210	    -16.22030713	      7.74346153	     -7.75915737	     -3.91971902	     -2.65622625	    -47.91958081	     -5.28099381	     -5.55673415	     19.18512717	     -0.72304298	      3.09007771	     -5.45073796
      0.71666667	      0.65685105	     -2.55630214	      2.67160703	     -0.53051609	      0.99487069	      0.28993232	     19.62603089	      5.89807996	     -0.78457013	    -18.71917337	     -0.36311479	    -16.30108798	      7.74318660	     -6.92868177	     -4.10270277	     -2.69519159	    -49.46389592	     -5.54841858	     -5.95704270	     18.96866922	     -0.66212149	      3.16939378	     -5.37710241
